<svg width="30" height="30" viewBox="0 0 36 36" fill="none" xmlns="http://www.w3.org/2000/svg">
<path d="M15.75 3.375C15.165 3.375 14.5575 3.5775 14.13 4.005C13.7025 4.4325 13.5 5.04 13.5 5.625V6.75H3.375V29.25H15.975C15.8287 28.53 15.75 27.7763 15.75 27H5.625V19.62C6.28875 20.0025 7.05375 20.25 7.875 20.25H18.0113C18.6413 19.395 19.4062 18.63 20.2612 18H7.875C6.53625 18 5.625 17.0887 5.625 15.75V9H30.375V15.75C30.375 15.93 30.3637 16.0988 30.33 16.2562C31.14 16.5037 31.905 16.8413 32.625 17.2575V6.75H22.5V5.625C22.5 5.04 22.2975 4.4325 21.87 4.005C21.4425 3.5775 20.835 3.375 20.25 3.375H15.75ZM15.75 5.625H20.25V6.75H15.75V5.625ZM10.125 13.5V16.875H12.375V13.5H10.125ZM23.625 13.5V16.2675C24.3576 16.0385 25.1114 15.884 25.875 15.8063V13.5H23.625ZM27 18C22.0387 18 18 22.0387 18 27C18 31.9613 22.0387 36 27 36C31.9613 36 36 31.9613 36 27C36 22.0387 31.9613 18 27 18ZM27 20.25C30.735 20.25 33.75 23.265 33.75 27C33.75 30.735 30.735 33.75 27 33.75C23.265 33.75 20.25 30.735 20.25 27C20.25 23.265 23.265 20.25 27 20.25ZM25.875 21.375V28.125H31.5V25.875H28.125V21.375H25.875Z" fill="black"/>
</svg>
