<svg width="17" height="17" viewBox="0 0 17 17" fill="none" xmlns="http://www.w3.org/2000/svg">
    <g clip-path="url(#clip0_962_4151)">
        <path fill-rule="evenodd" clip-rule="evenodd" d="M7.54673 0.274945C7.76065 0.14425 7.99925 0.0591185 8.24758 0.0248806C8.49591 -0.00935725 8.74864 0.00803526 8.98995 0.0759695C9.23125 0.143904 9.45593 0.260917 9.64993 0.419685C9.84393 0.578453 10.0031 0.775557 10.1174 0.998659L10.1198 1.00352L16.7984 14.3594C16.9381 14.6367 17.0046 14.9451 16.9916 15.2553C16.9786 15.5655 16.8866 15.8673 16.7241 16.1319C16.5617 16.3965 16.3343 16.6152 16.0636 16.7673C15.7929 16.9193 15.4878 16.9996 15.1773 17.0005H15.1749H1.81773H1.81652C1.50609 16.9997 1.20104 16.9195 0.9303 16.7676C0.659564 16.6158 0.432136 16.3972 0.269606 16.1327C0.107076 15.8683 0.0148371 15.5666 0.00164559 15.2565C-0.011546 14.9464 0.0547476 14.638 0.194233 14.3607V14.3594L6.87402 1.00352L6.87645 0.998659C7.02939 0.700203 7.26054 0.449765 7.54673 0.274945ZM8.4963 5.00945C8.73784 5.00945 8.96949 5.10539 9.14028 5.27619C9.31107 5.44698 9.40702 5.67862 9.40702 5.92016V9.86659C9.40702 10.1081 9.31107 10.3398 9.14028 10.5106C8.96949 10.6814 8.73784 10.7773 8.4963 10.7773C8.25477 10.7773 8.02312 10.6814 7.85233 10.5106C7.68154 10.3398 7.58559 10.1081 7.58559 9.86659V5.92016C7.58559 5.67862 7.68154 5.44698 7.85233 5.27619C8.02312 5.10539 8.25477 5.00945 8.4963 5.00945ZM9.71059 13.2059C9.71059 13.5279 9.58266 13.8368 9.35493 14.0645C9.12721 14.2922 8.81835 14.4202 8.4963 14.4202C8.17426 14.4202 7.8654 14.2922 7.63768 14.0645C7.40995 13.8368 7.28202 13.5279 7.28202 13.2059C7.28202 12.8838 7.40995 12.575 7.63768 12.3472C7.8654 12.1195 8.17426 11.9916 8.4963 11.9916C8.81835 11.9916 9.12721 12.1195 9.35493 12.3472C9.58266 12.575 9.71059 12.8838 9.71059 13.2059Z" fill="#FF0000"/>
    </g>
    <defs>
        <clipPath id="clip0_962_4151">
            <rect width="17" height="17" fill="white"/>
        </clipPath>
    </defs>
</svg>
