<svg width="114" height="112" viewBox="0 0 114 112" fill="none" xmlns="http://www.w3.org/2000/svg">
    <path d="M109.739 61.1573C109.048 67.9525 107.001 74.5473 103.712 80.566C100.425 86.5847 95.9603 91.9089 90.5749 96.2353C85.1895 100.561 78.9885 103.804 72.3258 105.778C65.6632 107.753 58.6695 108.421 51.7436 107.743C44.8179 107.066 38.0959 105.057 31.9615 101.831C25.8271 98.6053 20.4004 94.2252 15.9913 88.9414C11.5821 83.6577 8.27688 77.5737 6.26424 71.0367C4.25165 64.4997 3.57101 57.638 4.26131 50.8428C4.95161 44.0477 6.99929 37.4525 10.2874 31.4339C13.5755 25.4152 18.0397 20.091 23.425 15.765C28.8103 11.4391 35.0114 8.19619 41.6741 6.22152C48.3369 4.2469 55.3305 3.57911 62.2564 4.25638C69.1824 4.93365 75.9039 6.9427 82.0384 10.1687C88.1729 13.3948 93.5995 17.7748 98.0091 23.0585C102.418 28.3422 105.723 34.4263 107.736 40.9633C109.749 47.5003 110.429 54.362 109.739 61.1573Z" stroke="#CC6502" stroke-opacity="0.65" stroke-width="7" stroke-linecap="round" stroke-linejoin="round"/>
    <path d="M89.3863 53.1133H24.6085C22.9823 53.1133 21.6641 54.4067 21.6641 56.0022C21.6641 57.5977 22.9823 58.8911 24.6085 58.8911H89.3863C91.0124 58.8911 92.3307 57.5977 92.3307 56.0022C92.3307 54.4067 91.0124 53.1133 89.3863 53.1133Z" fill="#CC6502" fill-opacity="0.65"/>
</svg>
