<svg width="107" height="103" viewBox="0 0 107 103" fill="none" xmlns="http://www.w3.org/2000/svg">
    <path d="M4 69L19.5 53.5001M19.5 53.5001L35 38M19.5 53.5001L4 38M19.5 53.5001L35 69" stroke="#AA2B2B" stroke-width="7" stroke-linecap="round" stroke-linejoin="round"/>
    <path d="M19 27.75V15.875C19 12.7256 20.475 9.7051 23.1005 7.47811C25.726 5.25111 29.287 4 33 4H89C92.713 4 96.274 5.25111 98.8995 7.47811C101.525 9.7051 103 12.7256 103 15.875V87.125C103 90.2744 101.525 93.2949 98.8995 95.5219C96.274 97.7489 92.713 99 89 99H35.8C28.0685 99 19 93.683 19 87.125V75.25" stroke="#AA2B2B" stroke-width="7" stroke-linecap="round" stroke-linejoin="round"/>
</svg>
