<svg width="128" height="110" viewBox="0 0 128 110" fill="none" xmlns="http://www.w3.org/2000/svg">
    <path d="M19.3828 29.2997V16.5561C19.3828 13.1763 21.2181 9.93491 24.485 7.54502C27.7519 5.15513 32.1828 3.8125 36.8029 3.8125H106.483C111.103 3.8125 115.534 5.15513 118.801 7.54502C122.068 9.93491 123.903 13.1763 123.903 16.5561V93.0178C123.903 96.3976 122.068 99.639 118.801 102.029C115.534 104.419 111.103 105.761 106.483 105.761H40.2869C30.6666 105.761 19.3828 100.055 19.3828 93.0178V80.2742" stroke="#176420" stroke-opacity="0.65" stroke-width="7" stroke-linecap="round" stroke-linejoin="round"/>
    <path d="M4 55H34M34 55L19.6 38M34 55L19.6 72" stroke="#177521" stroke-width="7" stroke-linecap="round" stroke-linejoin="round"/>
</svg>
