<svg width="109" height="108" viewBox="0 0 109 108" fill="none" xmlns="http://www.w3.org/2000/svg">
    <path fill-rule="evenodd" clip-rule="evenodd" d="M101.764 23.9444C102.876 25.0163 102.892 26.7693 101.799 27.8601L57.4192 72.1619C56.3332 73.2462 54.559 73.2683 53.4447 72.2118L30.0873 50.0609C28.9666 48.9982 28.9363 47.245 30.0197 46.1457C31.103 45.046 32.8898 45.0166 34.0105 46.0793L55.3555 66.3218L97.7729 23.9784C98.8651 22.8878 100.652 22.8726 101.764 23.9444Z" fill="#0D459B" fill-opacity="0.65"/>
    <path d="M102.111 23.5845L102.111 23.5845C100.803 22.3237 98.7048 22.3413 97.4196 23.6246L55.3465 65.6243L34.3546 45.7165L34.3546 45.7165C33.0365 44.4667 30.9384 44.5007 29.6636 45.7948C28.3835 47.0936 28.4197 49.1686 29.7433 50.4237C29.7433 50.4237 29.7433 50.4237 29.7433 50.4237L53.1007 72.5746L53.4447 72.2118L53.1007 72.5746C54.4112 73.8173 56.4945 73.7916 57.7724 72.5158C57.7725 72.5158 57.7725 72.5158 57.7725 72.5158L102.152 28.2139C103.443 26.9253 103.424 24.8505 102.111 23.5845Z" fill="#0850BC" stroke="#0850BC"/>
    <path fill-rule="evenodd" clip-rule="evenodd" d="M73.1619 10.1926C63.848 6.36528 53.5408 5.51835 43.7076 7.77242C33.8748 10.0265 25.0173 15.2667 18.3966 22.7468C11.776 30.2269 7.72964 39.5655 6.83393 49.4328C5.93822 59.3005 8.23868 69.1936 13.4078 77.7034C18.577 86.2138 26.3512 92.9072 35.6235 96.8301C44.8958 100.754 55.1935 101.707 65.0504 99.5541C74.9067 97.4016 83.8203 92.2532 90.5206 84.8421C97.2209 77.4309 101.368 68.1342 102.369 58.2766C102.524 56.7548 103.906 55.6445 105.457 55.7962C107.008 55.948 108.14 57.3041 107.986 58.8259C106.867 69.8432 102.232 80.2336 94.7434 88.5163C87.2545 96.7997 77.2933 102.554 66.2764 104.959C55.2601 107.366 43.7511 106.3 33.388 101.915C23.0248 97.5306 14.336 90.0497 8.55874 80.5382C2.78146 71.0272 0.210337 59.97 1.21143 48.9416C2.21253 37.9135 6.73486 27.4761 14.1344 19.116C21.534 10.7559 31.4335 4.89923 42.4234 2.37996C53.4132 -0.13931 64.9335 0.80725 75.343 5.08486C76.7807 5.67567 77.4581 7.298 76.8558 8.70851C76.2535 10.119 74.5996 10.7834 73.1619 10.1926Z" fill="#0D459B" fill-opacity="0.65"/>
    <path d="M35.8184 96.3696L35.6235 96.8301L35.8183 96.3696C26.6415 92.4871 18.9492 85.8634 13.8351 77.4438L13.4078 77.7034L13.8351 77.4438C8.72126 69.025 6.4459 59.2386 7.33188 49.478C8.21787 39.7178 12.2204 30.4792 18.771 23.0782C25.3218 15.6771 34.0871 10.4908 43.8193 8.25978C53.5519 6.02875 63.7538 6.86712 72.9718 10.6551C74.6567 11.3475 76.6035 10.5725 77.3156 8.90487C78.0299 7.23199 77.2226 5.3167 75.533 4.62238C65.0278 0.305413 53.402 -0.649717 42.3117 1.8926C31.2212 4.43494 21.2294 10.3456 13.76 18.7846C6.29046 27.2238 1.72429 37.7612 0.713479 48.8964C-0.297337 60.0319 2.29888 71.1958 8.13139 80.7977C13.9638 90.4001 22.7345 97.9507 33.1932 102.376C43.6516 106.801 55.2661 107.876 66.3831 105.448C77.5008 103.02 87.5547 97.2131 95.1143 88.8517C102.674 80.4906 107.353 70.0007 108.483 58.8764L108.483 58.8763C108.666 57.0704 107.324 55.4764 105.506 55.2986C103.689 55.1209 102.055 56.4216 101.871 58.226C100.881 67.9768 96.7792 77.1739 90.1497 84.5067C83.5201 91.8397 74.6992 96.9351 64.9437 99.0656C55.1876 101.196 44.9953 100.253 35.8184 96.3696Z" stroke="#0D459B" stroke-opacity="0.65"/>
</svg>
