<svg width="30" height="30" viewBox="0 0 29 29" fill="none" xmlns="http://www.w3.org/2000/svg">

<g clip-path="url(#clip0_1128_7107)">
<path d="M25.8281 3.80673C25.5165 3.60515 25.1602 3.48319 24.7904 3.45159C24.4207 3.41999 24.0488 3.4797 23.7075 3.62548L12.5244 8.02986C12.2596 8.13761 11.9765 8.19301 11.6906 8.19298H4.53125C3.93037 8.19298 3.3541 8.43168 2.92921 8.85657C2.50432 9.28145 2.26562 9.85772 2.26562 10.4586V10.6399H0V16.0774H2.26562V16.313C2.27982 16.9044 2.52478 17.4668 2.94813 17.88C3.37149 18.2932 3.93967 18.5244 4.53125 18.5242L7.25 24.288C7.4341 24.6761 7.72393 25.0045 8.08622 25.2353C8.44851 25.4661 8.86856 25.5901 9.29813 25.593H10.44C11.0377 25.5882 11.6094 25.3474 12.0303 24.923C12.4513 24.4986 12.6875 23.9251 12.6875 23.3274V18.7417L23.7075 23.1461C23.9786 23.254 24.2676 23.3093 24.5594 23.3092C25.012 23.3019 25.4527 23.1634 25.8281 22.9105C26.1262 22.7092 26.3721 22.4398 26.5455 22.1246C26.7188 21.8095 26.8147 21.4575 26.825 21.098V5.67361C26.8233 5.30479 26.7317 4.94196 26.5579 4.61662C26.3842 4.29128 26.1337 4.01327 25.8281 3.80673ZM10.4219 10.4586V16.313H4.53125V10.4586H10.4219ZM10.4219 23.3274H9.28L7.05063 18.5242H10.4219V23.3274ZM13.3581 16.5849C13.1429 16.4749 12.9185 16.3839 12.6875 16.313V10.3317C12.9163 10.2845 13.1407 10.2178 13.3581 10.1324L24.5594 5.67361V21.0436L13.3581 16.5849ZM26.8794 11.093V15.6242C27.4803 15.6242 28.0565 15.3855 28.4814 14.9606C28.9063 14.5358 29.145 13.9595 29.145 13.3586C29.145 12.7577 28.9063 12.1815 28.4814 11.7566C28.0565 11.3317 27.4803 11.093 26.8794 11.093Z" fill="black"/>
</g>
<defs>
<clipPath id="clip0_1128_7107">
<rect width="29" height="29" fill="white"/>
</clipPath>
</defs>
</svg>
