<svg xmlns="http://www.w3.org/2000/svg" width="15" height="19" viewBox="0 0 15 19" fill="none">
  <path fill-rule="evenodd" clip-rule="evenodd" d="M0 1.92569C0 1.54758 0.131696 1.18494 0.366117 0.917576C0.600537 0.650207 0.918479 0.5 1.25 0.5H13.75C14.0815 0.5 14.3995 0.650207 14.6339 0.917576C14.8683 1.18494 15 1.54758 15 1.92569V3.90836C14.9999 4.41247 14.8242 4.8959 14.5117 5.25231L10 10.3981V17.4543C10 17.6326 9.9601 17.8078 9.88401 17.9635C9.80793 18.1192 9.69821 18.2501 9.56528 18.3438C9.43236 18.4375 9.28063 18.4909 9.12452 18.4989C8.96841 18.507 8.8131 18.4693 8.67333 18.3896L5.57583 16.6236C5.40281 16.525 5.25729 16.3733 5.15559 16.1856C5.05388 15.9979 5.00001 15.7817 5 15.561V10.3981L0.488333 5.25231C0.175751 4.8959 9.43957e-05 4.41247 0 3.90836V1.92569ZM1.66667 2.40092V3.90836L6.3 9.19292C6.41621 9.3253 6.5084 9.48249 6.57132 9.65553C6.63423 9.82856 6.66663 10.014 6.66667 10.2014V15.12L8.33333 16.0705V10.2014C8.33333 9.82308 8.465 9.46 8.7 9.19387L13.3333 3.90741V2.40092H1.66667Z" fill="black"/>
</svg>