<svg width="30" height="30" viewBox="0 0 39 39" fill="none" xmlns="http://www.w3.org/2000/svg">
<path fill-rule="evenodd" clip-rule="evenodd" d="M26.8125 15.0597C27.7574 15.3424 28.4375 15.4375 28.4375 15.4375V13H30.0625C31.1399 13 32.1733 12.572 32.9351 11.8101C33.697 11.0483 34.125 10.0149 34.125 8.9375C34.125 7.86006 33.697 6.82675 32.9351 6.06488C32.1733 5.30301 31.1399 4.875 30.0625 4.875H25.3792C24.251 4.875 23.1689 5.32321 22.371 6.12104C21.5732 6.91887 21.125 8.00095 21.125 9.12925C21.125 12.8001 24.6577 14.4154 26.8125 15.0597ZM32.5 8.9375C32.5 9.58397 32.2432 10.204 31.7861 10.6611C31.329 11.1182 30.709 11.375 30.0625 11.375H26.8125V13.3534C26.3667 13.2021 25.9316 13.021 25.5101 12.8115C23.8989 12.0039 22.75 10.855 22.75 9.12925C22.75 8.43193 23.027 7.76317 23.5201 7.27009C24.0132 6.77701 24.6819 6.5 25.3792 6.5H30.0625C30.709 6.5 31.329 6.75681 31.7861 7.21393C32.2432 7.67105 32.5 8.29103 32.5 8.9375ZM12.0388 14.6193C10.974 14.5824 9.96641 14.1286 9.23318 13.3557C8.49994 12.5827 8.09984 11.5526 8.11913 10.4873C8.13843 9.4221 8.57557 8.40712 9.33632 7.66123C10.0971 6.91533 11.1205 6.49829 12.1859 6.5H14.7607C15.8021 6.5 16.8009 6.91372 17.5374 7.65014C18.2738 8.38656 18.6875 9.38536 18.6875 10.4268C18.6875 13.7109 15.7381 15.2124 13.8125 15.8438C12.8798 16.1493 12.1875 16.25 12.1875 16.25V14.625L12.0388 14.6193ZM13.8125 13.0577L12.0981 12.9959C11.4539 12.9819 10.8414 12.7132 10.3949 12.2486C9.94833 11.7841 9.70406 11.1615 9.71556 10.5172C9.72706 9.87288 9.99339 9.25939 10.4562 8.81104C10.9191 8.36269 11.5407 8.116 12.1851 8.125H14.7599C15.0622 8.12489 15.3616 8.18435 15.641 8.29998C15.9204 8.41561 16.1742 8.58514 16.388 8.7989C16.6019 9.01265 16.7715 9.26644 16.8872 9.54576C17.0029 9.82508 17.0625 10.1245 17.0625 10.4268C17.0625 11.9827 16.0737 13.0024 14.6868 13.7256C14.3942 13.8783 14.0977 14.0083 13.8125 14.1188V13.0577ZM22.75 19.5C22.75 21.2956 21.2956 22.75 19.5 22.75C17.7044 22.75 16.25 21.2956 16.25 19.5C16.25 17.7044 17.7044 16.25 19.5 16.25C21.2956 16.25 22.75 17.7044 22.75 19.5ZM21.125 19.5C21.125 19.931 20.9538 20.3443 20.649 20.649C20.3443 20.9538 19.931 21.125 19.5 21.125C19.069 21.125 18.6557 20.9538 18.351 20.649C18.0462 20.3443 17.875 19.931 17.875 19.5C17.875 19.069 18.0462 18.6557 18.351 18.351C18.6557 18.0462 19.069 17.875 19.5 17.875C19.931 17.875 20.3443 18.0462 20.649 18.351C20.9538 18.6557 21.125 19.069 21.125 19.5ZM15.4375 21.125C15.4375 22.9206 13.9831 24.375 12.1875 24.375C10.3919 24.375 8.9375 22.9206 8.9375 21.125C8.9375 19.3294 10.3919 17.875 12.1875 17.875C13.9831 17.875 15.4375 19.3294 15.4375 21.125ZM13.8125 21.125C13.8125 21.556 13.6413 21.9693 13.3365 22.274C13.0318 22.5788 12.6185 22.75 12.1875 22.75C11.7565 22.75 11.3432 22.5788 11.0385 22.274C10.7337 21.9693 10.5625 21.556 10.5625 21.125C10.5625 20.694 10.7337 20.2807 11.0385 19.976C11.3432 19.6712 11.7565 19.5 12.1875 19.5C12.6185 19.5 13.0318 19.6712 13.3365 19.976C13.6413 20.2807 13.8125 20.694 13.8125 21.125ZM4.875 29.6928C4.875 27.2374 9.74675 26 12.1875 26C12.6628 26 13.2308 26.0471 13.8369 26.1406C14.9256 25.3419 16.9219 24.375 19.5 24.375C22.0772 24.375 24.0736 25.3419 25.1639 26.1406C25.7092 26.0526 26.2602 26.0057 26.8125 26C29.2533 26 34.125 27.2374 34.125 29.6928V34.125H4.875V29.6928ZM17.5923 29.2687C17.875 29.5319 17.875 29.6692 17.875 29.6928V32.5H6.5V29.6928C6.5 29.6684 6.5 29.5319 6.78275 29.2687C7.07769 28.9932 7.56437 28.6999 8.22575 28.4318C9.55175 27.8956 11.1719 27.625 12.1875 27.625C13.2031 27.625 14.8232 27.8956 16.1493 28.4318C16.8106 28.6999 17.2973 28.9932 17.5923 29.2687ZM22.8654 26.6955C21.8033 26.235 20.6577 25.9982 19.5 26C18.1545 26 17.0105 26.3136 16.1354 26.6955C17.9351 27.3 19.5 28.301 19.5 29.6936C19.5 28.301 21.0649 27.3008 22.8654 26.6955ZM32.5 29.6936C32.5 29.6693 32.5 29.5319 32.2173 29.2687C31.9223 28.9932 31.4356 28.6999 30.7743 28.4318C29.4482 27.8956 27.8281 27.625 26.8125 27.625C25.7969 27.625 24.1768 27.8956 22.8507 28.4318C22.1894 28.6999 21.7027 28.9932 21.4077 29.2687C21.125 29.5319 21.125 29.6692 21.125 29.6928V32.5H32.5V29.6928V29.6936ZM26.8125 24.375C28.6081 24.375 30.0625 22.9206 30.0625 21.125C30.0625 19.3294 28.6081 17.875 26.8125 17.875C25.0169 17.875 23.5625 19.3294 23.5625 21.125C23.5625 22.9206 25.0169 24.375 26.8125 24.375ZM26.8125 22.75C27.2435 22.75 27.6568 22.5788 27.9615 22.274C28.2663 21.9693 28.4375 21.556 28.4375 21.125C28.4375 20.694 28.2663 20.2807 27.9615 19.976C27.6568 19.6712 27.2435 19.5 26.8125 19.5C26.3815 19.5 25.9682 19.6712 25.6635 19.976C25.3587 20.2807 25.1875 20.694 25.1875 21.125C25.1875 21.556 25.3587 21.9693 25.6635 22.274C25.9682 22.5788 26.3815 22.75 26.8125 22.75Z" fill="black"/>
</svg>
