<svg xmlns="http://www.w3.org/2000/svg" width="13" height="13" viewBox="0 0 13 13" fill="none">
  <path d="M5.96094 9.20898H7.04427V5.95898H5.96094V9.20898ZM6.5026 4.87565C6.65608 4.87565 6.78481 4.82365 6.88881 4.71965C6.99281 4.61565 7.04463 4.4871 7.04427 4.33398C7.04427 4.18051 6.99227 4.05178 6.88827 3.94778C6.78427 3.84378 6.65571 3.79196 6.5026 3.79232C6.34913 3.79232 6.2204 3.84432 6.1164 3.94832C6.0124 4.05232 5.96058 4.18087 5.96094 4.33398C5.96094 4.48746 6.01294 4.61619 6.11694 4.72019C6.22094 4.82419 6.34949 4.87601 6.5026 4.87565ZM6.5026 11.9173C5.7533 11.9173 5.04913 11.775 4.3901 11.4905C3.73108 11.2059 3.15781 10.8201 2.67031 10.3329C2.18281 9.84544 1.79697 9.27218 1.51277 8.61315C1.22858 7.95412 1.0863 7.24996 1.08594 6.50065C1.08594 5.75135 1.22822 5.04718 1.51277 4.38815C1.79733 3.72912 2.18317 3.15586 2.67031 2.66836C3.15781 2.18086 3.73108 1.79501 4.3901 1.51082C5.04913 1.22662 5.7533 1.08435 6.5026 1.08398C7.25191 1.08398 7.95608 1.22626 8.6151 1.51082C9.27413 1.79537 9.8474 2.18122 10.3349 2.66836C10.8224 3.15586 11.2084 3.72912 11.493 4.38815C11.7775 5.04718 11.9196 5.75135 11.9193 6.50065C11.9193 7.24996 11.777 7.95412 11.4924 8.61315C11.2079 9.27218 10.822 9.84544 10.3349 10.3329C9.8474 10.8204 9.27413 11.2065 8.6151 11.491C7.95608 11.7756 7.25191 11.9177 6.5026 11.9173Z" fill="#404040"/>
</svg>