<svg width="26" height="30" viewBox="0 0 41 45" fill="none" xmlns="http://www.w3.org/2000/svg">
    <path d="M20.4987 36.791C20.9025 36.791 21.2972 36.6713 21.633 36.4469C21.9687 36.2226 22.2304 35.9037 22.385 35.5307C22.5395 35.1576 22.5799 34.7471 22.5011 34.351C22.4224 33.955 22.2279 33.5912 21.9424 33.3057C21.6568 33.0201 21.2931 32.8257 20.897 32.7469C20.501 32.6681 20.0905 32.7086 19.7174 32.8631C19.3443 33.0176 19.0255 33.2793 18.8011 33.6151C18.5768 33.9508 18.457 34.3455 18.457 34.7494C18.457 35.2908 18.6721 35.8101 19.055 36.193C19.4379 36.5759 19.9572 36.791 20.4987 36.791ZM30.707 36.791C31.1108 36.791 31.5056 36.6713 31.8413 36.4469C32.1771 36.2226 32.4388 35.9037 32.5933 35.5307C32.7478 35.1576 32.7882 34.7471 32.7095 34.351C32.6307 33.955 32.4362 33.5912 32.1507 33.3057C31.8652 33.0201 31.5014 32.8257 31.1053 32.7469C30.7093 32.6681 30.2988 32.7086 29.9257 32.8631C29.5527 33.0176 29.2338 33.2793 29.0094 33.6151C28.7851 33.9508 28.6654 34.3455 28.6654 34.7494C28.6654 35.2908 28.8805 35.8101 29.2634 36.193C29.6462 36.5759 30.1655 36.791 30.707 36.791ZM30.707 28.6243C31.1108 28.6243 31.5056 28.5046 31.8413 28.2803C32.1771 28.0559 32.4388 27.7371 32.5933 27.364C32.7478 26.9909 32.7882 26.5804 32.7095 26.1844C32.6307 25.7883 32.4362 25.4245 32.1507 25.139C31.8652 24.8535 31.5014 24.659 31.1053 24.5802C30.7093 24.5015 30.2988 24.5419 29.9257 24.6964C29.5527 24.851 29.2338 25.1126 29.0094 25.4484C28.7851 25.7841 28.6654 26.1789 28.6654 26.5827C28.6654 27.1242 28.8805 27.6435 29.2634 28.0264C29.6462 28.4092 30.1655 28.6243 30.707 28.6243ZM20.4987 28.6243C20.9025 28.6243 21.2972 28.5046 21.633 28.2803C21.9687 28.0559 22.2304 27.7371 22.385 27.364C22.5395 26.9909 22.5799 26.5804 22.5011 26.1844C22.4224 25.7883 22.2279 25.4245 21.9424 25.139C21.6568 24.8535 21.2931 24.659 20.897 24.5802C20.501 24.5015 20.0905 24.5419 19.7174 24.6964C19.3443 24.851 19.0255 25.1126 18.8011 25.4484C18.5768 25.7841 18.457 26.1789 18.457 26.5827C18.457 27.1242 18.6721 27.6435 19.055 28.0264C19.4379 28.4092 19.9572 28.6243 20.4987 28.6243ZM34.7904 4.12435H32.7487V2.08268C32.7487 1.5412 32.5336 1.02189 32.1507 0.639006C31.7678 0.256119 31.2485 0.0410156 30.707 0.0410156C30.1655 0.0410156 29.6462 0.256119 29.2634 0.639006C28.8805 1.02189 28.6654 1.5412 28.6654 2.08268V4.12435H12.332V2.08268C12.332 1.5412 12.1169 1.02189 11.734 0.639006C11.3512 0.256119 10.8318 0.0410156 10.2904 0.0410156C9.74888 0.0410156 9.22957 0.256119 8.84669 0.639006C8.4638 1.02189 8.2487 1.5412 8.2487 2.08268V4.12435H6.20703C4.58258 4.12435 3.02466 4.76966 1.876 5.91832C0.727342 7.06698 0.0820313 8.6249 0.0820312 10.2493V38.8327C0.0820313 40.4571 0.727342 42.0151 1.876 43.1637C3.02466 44.3124 4.58258 44.9577 6.20703 44.9577H34.7904C36.4148 44.9577 37.9727 44.3124 39.1214 43.1637C40.2701 42.0151 40.9154 40.4571 40.9154 38.8327V10.2493C40.9154 8.6249 40.2701 7.06698 39.1214 5.91832C37.9727 4.76966 36.4148 4.12435 34.7904 4.12435ZM36.832 38.8327C36.832 39.3742 36.6169 39.8935 36.234 40.2764C35.8512 40.6592 35.3318 40.8744 34.7904 40.8744H6.20703C5.66555 40.8744 5.14624 40.6592 4.76335 40.2764C4.38047 39.8935 4.16536 39.3742 4.16536 38.8327V20.4577H36.832V38.8327ZM36.832 16.3743H4.16536V10.2493C4.16536 9.70787 4.38047 9.18856 4.76335 8.80567C5.14624 8.42279 5.66555 8.20768 6.20703 8.20768H8.2487V10.2493C8.2487 10.7908 8.4638 11.3101 8.84669 11.693C9.22957 12.0759 9.74888 12.291 10.2904 12.291C10.8318 12.291 11.3512 12.0759 11.734 11.693C12.1169 11.3101 12.332 10.7908 12.332 10.2493V8.20768H28.6654V10.2493C28.6654 10.7908 28.8805 11.3101 29.2634 11.693C29.6462 12.0759 30.1655 12.291 30.707 12.291C31.2485 12.291 31.7678 12.0759 32.1507 11.693C32.5336 11.3101 32.7487 10.7908 32.7487 10.2493V8.20768H34.7904C35.3318 8.20768 35.8512 8.42279 36.234 8.80567C36.6169 9.18856 36.832 9.70787 36.832 10.2493V16.3743ZM10.2904 28.6243C10.6942 28.6243 11.0889 28.5046 11.4247 28.2803C11.7604 28.0559 12.0221 27.7371 12.1766 27.364C12.3311 26.9909 12.3716 26.5804 12.2928 26.1844C12.214 25.7883 12.0196 25.4245 11.734 25.139C11.4485 24.8535 11.0847 24.659 10.6887 24.5802C10.2926 24.5015 9.88212 24.5419 9.50905 24.6964C9.13599 24.851 8.81712 25.1126 8.59278 25.4484C8.36844 25.7841 8.2487 26.1789 8.2487 26.5827C8.2487 27.1242 8.4638 27.6435 8.84669 28.0264C9.22957 28.4092 9.74888 28.6243 10.2904 28.6243ZM10.2904 36.791C10.6942 36.791 11.0889 36.6713 11.4247 36.4469C11.7604 36.2226 12.0221 35.9037 12.1766 35.5307C12.3311 35.1576 12.3716 34.7471 12.2928 34.351C12.214 33.955 12.0196 33.5912 11.734 33.3057C11.4485 33.0201 11.0847 32.8257 10.6887 32.7469C10.2926 32.6681 9.88212 32.7086 9.50905 32.8631C9.13599 33.0176 8.81712 33.2793 8.59278 33.6151C8.36844 33.9508 8.2487 34.3455 8.2487 34.7494C8.2487 35.2908 8.4638 35.8101 8.84669 36.193C9.22957 36.5759 9.74888 36.791 10.2904 36.791Z" fill="white"/>
</svg>
