<svg width="30" height="30" viewBox="0 0 37 37" fill="none" xmlns="http://www.w3.org/2000/svg">
<path d="M7.39688 4.62422C7.39688 4.37889 7.29942 4.14362 7.12595 3.97015C6.95248 3.79667 6.7172 3.69922 6.47188 3.69922C6.22655 3.69922 5.99127 3.79667 5.8178 3.97015C5.64433 4.14362 5.54688 4.37889 5.54688 4.62422V9.24922C5.54689 9.89869 5.71786 10.5367 6.0426 11.0992C6.36735 11.6616 6.83442 12.1287 7.39688 12.4534V13.8742C7.39688 14.6102 7.68924 15.316 8.20965 15.8364C8.73007 16.3569 9.4359 16.6492 10.1719 16.6492H17.5719V23.1242C17.5719 23.3695 17.6693 23.6048 17.8428 23.7783C18.0163 23.9518 18.2515 24.0492 18.4969 24.0492C18.7422 24.0492 18.9775 23.9518 19.1509 23.7783C19.3244 23.6048 19.4219 23.3695 19.4219 23.1242V16.6492H26.8219C27.5579 16.6492 28.2637 16.3569 28.7841 15.8364C29.3045 15.316 29.5969 14.6102 29.5969 13.8742V12.4534C30.1593 12.1287 30.6264 11.6616 30.9511 11.0992C31.2759 10.5367 31.4469 9.89869 31.4469 9.24922V4.62422C31.4469 4.37889 31.3494 4.14362 31.1759 3.97015C31.0025 3.79667 30.7672 3.69922 30.5219 3.69922C30.2766 3.69922 30.0413 3.79667 29.8678 3.97015C29.6943 4.14362 29.5969 4.37889 29.5969 4.62422V9.24922C29.5969 9.73987 29.402 10.2104 29.055 10.5574C28.7081 10.9043 28.2375 11.0992 27.7469 11.0992H9.24688C8.75622 11.0992 8.28567 10.9043 7.93873 10.5574C7.59179 10.2104 7.39688 9.73987 7.39688 9.24922V4.62422ZM9.24688 12.9492H27.7469V13.8742C27.7469 14.1195 27.6494 14.3548 27.476 14.5283C27.3025 14.7018 27.0672 14.7992 26.8219 14.7992H10.1719C9.92655 14.7992 9.69127 14.7018 9.5178 14.5283C9.34433 14.3548 9.24688 14.1195 9.24688 13.8742V12.9492ZM10.1719 25.8992C9.92655 25.8992 9.69127 25.9967 9.5178 26.1701C9.34433 26.3436 9.24688 26.5789 9.24688 26.8242C9.24688 27.0695 9.34433 27.3048 9.5178 27.4783C9.69127 27.6518 9.92655 27.7492 10.1719 27.7492H12.9469C13.1922 27.7492 13.4275 27.6518 13.6009 27.4783C13.7744 27.3048 13.8719 27.0695 13.8719 26.8242C13.8719 26.5789 13.7744 26.3436 13.6009 26.1701C13.4275 25.9967 13.1922 25.8992 12.9469 25.8992H10.1719ZM23.1219 26.8242C23.1219 26.5789 23.2193 26.3436 23.3928 26.1701C23.5663 25.9967 23.8015 25.8992 24.0469 25.8992H26.8219C27.0672 25.8992 27.3025 25.9967 27.476 26.1701C27.6494 26.3436 27.7469 26.5789 27.7469 26.8242C27.7469 27.0695 27.6494 27.3048 27.476 27.4783C27.3025 27.6518 27.0672 27.7492 26.8219 27.7492H24.0469C23.8015 27.7492 23.5663 27.6518 23.3928 27.4783C23.2193 27.3048 23.1219 27.0695 23.1219 26.8242ZM18.4969 27.7492C18.7422 27.7492 18.9775 27.6518 19.1509 27.4783C19.3244 27.3048 19.4219 27.0695 19.4219 26.8242C19.4219 26.5789 19.3244 26.3436 19.1509 26.1701C18.9775 25.9967 18.7422 25.8992 18.4969 25.8992C18.2515 25.8992 18.0163 25.9967 17.8428 26.1701C17.6693 26.3436 17.5719 26.5789 17.5719 26.8242C17.5719 27.0695 17.6693 27.3048 17.8428 27.4783C18.0163 27.6518 18.2515 27.7492 18.4969 27.7492ZM18.4969 29.5992C18.7422 29.5992 18.9775 29.6967 19.1509 29.8701C19.3244 30.0436 19.4219 30.2789 19.4219 30.5242V34.2242C19.4219 34.4695 19.3244 34.7048 19.1509 34.8783C18.9775 35.0518 18.7422 35.1492 18.4969 35.1492C18.2515 35.1492 18.0163 35.0518 17.8428 34.8783C17.6693 34.7048 17.5719 34.4695 17.5719 34.2242V30.5242C17.5719 30.2789 17.6693 30.0436 17.8428 29.8701C18.0163 29.6967 18.2515 29.5992 18.4969 29.5992ZM16.3768 29.3291C16.5505 29.1554 16.648 28.9199 16.648 28.6742C16.648 28.4286 16.5505 28.193 16.3768 28.0193C16.2031 27.8456 15.9675 27.7481 15.7219 27.7481C15.4762 27.7481 15.2407 27.8456 15.067 28.0193L12.292 30.7943C12.1183 30.968 12.0207 31.2036 12.0207 31.4492C12.0207 31.6949 12.1183 31.9304 12.292 32.1041C12.4657 32.2778 12.7012 32.3754 12.9469 32.3754C13.1925 32.3754 13.4281 32.2778 13.6018 32.1041L16.3768 29.3291ZM20.617 28.0193C20.5308 28.1052 20.4625 28.2073 20.4159 28.3197C20.3692 28.4321 20.3452 28.5525 20.3452 28.6742C20.3452 28.7959 20.3692 28.9164 20.4159 29.0287C20.4625 29.1411 20.5308 29.2432 20.617 29.3291L23.392 32.1041C23.5657 32.2778 23.8012 32.3754 24.0469 32.3754C24.2925 32.3754 24.5281 32.2778 24.7018 32.1041C24.8755 31.9304 24.973 31.6949 24.973 31.4492C24.973 31.2036 24.8755 30.968 24.7018 30.7943L21.9268 28.0193C21.8409 27.9332 21.7388 27.8648 21.6264 27.8182C21.514 27.7716 21.3935 27.7476 21.2719 27.7476C21.1502 27.7476 21.0297 27.7716 20.9174 27.8182C20.805 27.8648 20.7029 27.9332 20.617 28.0193Z" fill="black"/>
</svg>