<svg width="25" height="28" viewBox="0 0 25 28" fill="none" xmlns="http://www.w3.org/2000/svg">
  <path
    d="M12.9167 0H2.58333C1.14958 0 0 1.14958 0 2.58333V23.25C0 24.6838 1.14958 25.8333 2.58333 25.8333H12.6713C11.9867 24.6579 11.625 23.3146 11.625 21.9583C11.625 17.6829 15.0996 14.2083 19.375 14.2083C19.8142 14.2083 20.2404 14.2471 20.6667 14.3117V7.75L12.9167 0ZM11.625 9.04167V1.9375L18.7292 9.04167H11.625ZM24.5417 23.25H20.6667V27.125H18.0833V23.25H14.2083V20.6667H18.0833V16.7917H20.6667V20.6667H24.5417V23.25Z"
    fill="white"
  />
</svg>
