<svg width="30" height="26" viewBox="0 0 30 26" fill="none" xmlns="http://www.w3.org/2000/svg">
<path d="M18.494 6.8894V3.97644C18.494 3.20387 18.1868 2.46295 17.64 1.91666C17.0932 1.37038 16.3516 1.06348 15.5783 1.06348H3.91566C3.14238 1.06348 2.40077 1.37038 1.85398 1.91666C1.30719 2.46295 1 3.20387 1 3.97644V21.4542C1 22.2268 1.30719 22.9677 1.85398 23.514C2.40077 24.0603 3.14238 24.3672 3.91566 24.3672H14.9952C16.6054 24.3672 18.494 23.0629 18.494 21.4542V18.5413" stroke="black" stroke-opacity="0.4" stroke-width="2" stroke-linecap="round" stroke-linejoin="round"/>
<path d="M23.1562 6.88916L28.9876 12.7151L23.1562 18.541" stroke="black" stroke-opacity="0.4" stroke-width="2" stroke-linecap="round" stroke-linejoin="round"/>
<path d="M9.16406 12.7148H27.8243" stroke="black" stroke-opacity="0.4" stroke-width="2" stroke-linecap="round" stroke-linejoin="round"/>
</svg>
