<svg xmlns="http://www.w3.org/2000/svg" width="38" height="38" viewBox="0 0 38 38" fill="none">
  <path d="M30.875 19.6958V16.625H28.5V20.1875C28.5001 20.5024 28.6252 20.8044 28.8479 21.0271L32.0625 24.2417V26.125H5.9375V24.2417L9.15206 21.0271C9.37478 20.8044 9.49993 20.5024 9.5 20.1875V15.4375C9.49694 13.7689 9.93421 12.1291 10.7677 10.6836C11.6011 9.23805 12.8012 8.03804 14.2468 7.20472C15.6924 6.3714 17.3323 5.93427 19.0009 5.93747C20.6694 5.94068 22.3076 6.3841 23.75 7.22297V4.56796C22.6196 4.06749 21.4173 3.74852 20.1875 3.62283V1.1875H17.8125V3.62283C14.8849 3.92069 12.1718 5.29349 10.1977 7.47578C8.22361 9.65807 7.12881 12.4948 7.125 15.4375V19.6958L3.91044 22.9104C3.68772 23.1331 3.56257 23.4351 3.5625 23.75V27.3125C3.5625 27.6274 3.68761 27.9295 3.91031 28.1522C4.13301 28.3749 4.43506 28.5 4.75 28.5H13.0625V29.6875C13.0625 31.2622 13.6881 32.7724 14.8016 33.8859C15.9151 34.9994 17.4253 35.625 19 35.625C20.5747 35.625 22.0849 34.9994 23.1984 33.8859C24.3119 32.7724 24.9375 31.2622 24.9375 29.6875V28.5H33.25C33.5649 28.5 33.867 28.3749 34.0897 28.1522C34.3124 27.9295 34.4375 27.6274 34.4375 27.3125V23.75C34.4374 23.4351 34.3123 23.1331 34.0896 22.9104L30.875 19.6958ZM22.5625 29.6875C22.5625 30.6323 22.1872 31.5385 21.5191 32.2066C20.851 32.8747 19.9448 33.25 19 33.25C18.0552 33.25 17.149 32.8747 16.4809 32.2066C15.8128 31.5385 15.4375 30.6323 15.4375 29.6875V28.5H22.5625V29.6875Z" fill="black"/>
  <path d="M30.875 14.25C33.4984 14.25 35.625 12.1234 35.625 9.5C35.625 6.87665 33.4984 4.75 30.875 4.75C28.2516 4.75 26.125 6.87665 26.125 9.5C26.125 12.1234 28.2516 14.25 30.875 14.25Z" fill="black"/>
</svg>