<svg width="30" height="30" viewBox="0 0 35 35" fill="none" xmlns="http://www.w3.org/2000/svg">
<path d="M28.8415 2.79859L28.8414 2.79865L28.8504 2.8076L31.3179 5.2751L32.025 4.56799L31.3179 5.2751C31.6099 5.56707 31.6099 6.03641 31.3179 6.32838L31.3171 6.3292L30.2762 7.37248L29.7571 6.85338L27.2721 4.36838L26.7455 3.84174L27.7744 2.81285C28.1026 2.49642 28.5685 2.51856 28.8415 2.79859ZM23.5 14.578V30.5005H6.25V6.25049H23.9225H23.9793L16.4772 13.7665L16.3113 13.9327L16.2368 14.1554L14.9943 17.8654L14.3569 19.7686L16.2601 19.1312L19.9701 17.8887L20.1927 17.8141L20.3589 17.6483L23.5 14.5131V14.578Z" stroke="black" stroke-width="2"/>
</svg>
