<svg width="30" height="30" viewBox="0 0 41 41" fill="none" xmlns="http://www.w3.org/2000/svg">
<path d="M7.39897 20.3585C7.60205 20.3585 7.76669 20.1939 7.76669 19.9908C7.76669 19.7877 7.60205 19.623 7.39897 19.623C7.19588 19.623 7.03125 19.7877 7.03125 19.9908C7.03125 20.1939 7.19588 20.3585 7.39897 20.3585Z" fill="black"/>
<path d="M37.3254 16.4121H36.581L36.5816 16.0661C36.5785 15.6599 36.4195 15.2704 36.1374 14.978C35.8554 14.6857 35.4718 14.5129 35.0659 14.4953H35.055L35.0134 14.4947C34.6091 14.4947 34.2299 14.6523 33.9461 14.9386C33.8064 15.0788 33.6958 15.2452 33.6206 15.4283C33.5454 15.6113 33.5071 15.8074 33.5079 16.0053L33.5066 21.8881C33.5066 22.4109 33.7424 22.8741 34.1082 23.1944C33.7402 23.946 33.3744 24.6988 33.0108 25.4526C32.6273 24.6592 32.2418 23.8667 31.8544 23.0752C31.5802 22.5147 30.8512 21.9138 29.6257 21.9138H26.1599L26.1324 22.0201H25.9197C25.7159 21.9458 25.5401 21.8101 25.4168 21.6316C25.2934 21.4532 25.2285 21.2409 25.231 21.0239V20.7158C27.7128 19.8516 30.6872 17.6856 31.2234 14.8534C32.1197 14.6907 33.0627 14.1071 33.0627 12.3774C33.0627 10.7848 32.4432 10.3319 31.9313 10.2249C31.8685 3.97498 30.2798 1.32535 23.2432 1.28307C16.1367 1.19979 14.2526 3.96729 14.1764 10.2973C13.726 10.4901 13.2731 11.0161 13.2731 12.3774C13.2731 14.1065 14.2155 14.6901 15.1111 14.8534C15.6453 17.6786 18.6057 19.8413 21.0842 20.71V21.0239C21.0842 21.4909 20.7947 21.8811 20.3969 22.0201H20.181L20.1534 21.9138H16.4167C15.2526 21.9138 14.6428 22.5544 14.3154 22.8984L11.0899 26.2745V17.7837C11.0899 17.3781 10.7567 17.0476 10.3512 17.0476H4.4453C4.0385 17.0476 3.70666 17.3781 3.70666 17.7837V25.6858C3.62518 25.6739 3.54299 25.6677 3.46066 25.6672C2.71689 25.6672 1.92188 26.0663 1.92188 27.1842V33.1176C1.9234 33.5941 2.11386 34.0504 2.45147 34.3866C2.78907 34.7228 3.24624 34.9113 3.72267 34.9108H6.4748C6.66698 34.9108 6.84828 34.8717 7.02189 34.8172C8.48892 34.6994 9.07445 34.1004 9.50688 33.6474L9.54788 33.6039L10.2891 32.8281L16.056 26.7934L16.0534 37.8653V38.2471L16.3891 38.4297C16.4878 38.481 18.8107 39.7187 23.1567 39.7187C27.495 39.7187 29.8237 38.4822 29.9217 38.4297L30.258 38.2471V28.7902L30.3983 29.0791C30.6513 29.616 31.4842 30.6416 32.8128 30.6429H32.9704C33.4227 30.6327 34.8904 30.4943 35.5912 29.14L35.6213 29.1022L35.6437 29.0349L38.2639 23.6345L38.4798 23.1905C38.8443 22.8702 39.0788 22.407 39.0788 21.8869V18.1578C39.0769 17.694 38.8913 17.2499 38.5627 16.9227C38.234 16.5955 37.7891 16.4119 37.3254 16.4121ZM9.44025 18.0944C9.44025 17.9931 9.52225 17.9105 9.62475 17.9105H9.99375C10.0956 17.9105 10.1782 17.9931 10.1782 18.0944V18.4621C10.1781 18.5109 10.1586 18.5577 10.124 18.5921C10.0894 18.6266 10.0426 18.6459 9.99375 18.6459H9.62475C9.60055 18.646 9.57657 18.6413 9.55419 18.6321C9.53181 18.6229 9.51147 18.6094 9.49433 18.5923C9.47719 18.5752 9.46359 18.5549 9.45431 18.5326C9.44503 18.5102 9.44025 18.4863 9.44025 18.4621V18.0944ZM7.62856 33.117C7.62771 33.4224 7.50576 33.715 7.28946 33.9305C7.07316 34.1461 6.78018 34.2671 6.4748 34.2669H3.72267C3.41718 34.2673 3.12403 34.1464 2.90759 33.9308C2.69115 33.7152 2.56911 33.4225 2.56827 33.117V27.1835C2.56827 26.5064 2.99492 26.3315 3.38314 26.3129L3.39916 26.9939H6.4748C7.11094 26.9939 7.62856 27.5109 7.62856 28.1451V33.117ZM7.39858 20.7267C7.30178 20.7269 7.20589 20.7079 7.1164 20.671C7.02691 20.6341 6.94558 20.5799 6.87704 20.5116C6.8085 20.4432 6.75411 20.362 6.71696 20.2726C6.67982 20.1832 6.66066 20.0874 6.66058 19.9906C6.66058 19.7949 6.73833 19.6072 6.87673 19.4688C7.01514 19.3304 7.20285 19.2526 7.39858 19.2526C7.59431 19.2526 7.78202 19.3304 7.92042 19.4688C8.05883 19.6072 8.13658 19.7949 8.13658 19.9906C8.13658 20.3974 7.80538 20.7267 7.39858 20.7267ZM9.0815 33.1586C8.8182 33.4341 8.54722 33.7282 8.06867 33.9332C8.19616 33.6865 8.27495 33.4123 8.27495 33.1176V31.7621H10.3512C10.38 31.7621 10.4044 31.7486 10.4326 31.7461C10.0034 32.1939 9.55364 32.6654 9.0815 33.1586ZM15.7946 14.4799L15.7562 14.1891L15.4647 14.1622C14.4563 14.068 14.0073 13.5177 14.0073 12.3774C14.0073 11.4133 14.2347 10.9251 14.6844 10.9251L14.7498 10.927C14.8221 11.3153 14.8958 11.5504 14.9765 11.6779C15.2174 12.1711 15.6838 12.3883 15.7363 12.4114L16.3404 12.6792L16.2475 12.0238C16.1815 11.4785 16.1596 10.9288 16.1822 10.3799C16.3987 7.16465 16.6178 6.89495 17.236 6.89495C17.5461 6.89495 17.9766 6.97951 18.523 7.08649C19.5897 7.29662 21.0522 7.58362 23.1682 7.58362C25.2855 7.58362 26.7467 7.29662 27.8147 7.08649C28.3598 6.97951 28.7897 6.89495 29.1004 6.89495C29.7186 6.89495 29.9364 7.16529 30.1523 10.3697C30.1751 10.9221 30.1535 11.4755 30.0876 12.0244L29.9941 12.6804L30.5995 12.412C30.6513 12.3889 31.1158 12.1718 31.3419 11.7086C31.4355 11.5542 31.5098 11.3204 31.5847 10.927C32.0928 10.8956 32.3291 11.3684 32.3291 12.3774C32.3291 13.5171 31.8788 14.068 30.8704 14.1622L30.5783 14.1891L30.5399 14.4799C30.0703 18.0995 25.1272 20.3955 23.1676 20.3955C21.2073 20.3948 16.2642 18.0988 15.7946 14.4799ZM20.507 22.6633L20.6115 22.6268C21.2809 22.3929 21.73 21.7485 21.73 21.0239V20.9086C22.2553 21.0496 22.7473 21.1284 23.1676 21.1284C23.582 21.1284 24.067 21.0508 24.5853 20.9131V21.0239C24.5853 21.7485 25.0356 22.3929 25.7064 22.6268L25.8101 22.6633H25.944C25.6039 23.5256 24.1208 24.1098 23.1567 24.1098C22.19 24.1098 20.7069 23.5256 20.368 22.6633H20.507ZM35.0454 28.7902C35.0443 28.7921 35.043 28.7938 35.0415 28.7954C34.5188 29.8742 33.3734 29.9914 32.9704 30.0004H32.8135C31.5719 29.9991 30.9947 28.8306 30.9806 28.8005C30.684 28.1848 30.1497 27.0849 29.6129 25.9779L29.6116 37.8647C29.6116 37.8647 27.381 39.0761 23.1573 39.0761C18.9266 39.0761 16.7017 37.8647 16.7017 37.8647L16.7043 25.1835C14.8304 27.1451 12.9562 29.1062 11.0815 31.067C11.0822 31.0536 11.0899 31.0407 11.0899 31.0266V27.2079C12.1437 26.1054 13.3545 24.8382 14.7683 23.3564C15.0803 23.0297 15.5166 22.5557 16.4167 22.5557H19.6505C19.9696 23.8158 21.7736 24.7517 23.1573 24.7517C24.5417 24.7517 26.3425 23.8158 26.6635 22.5557H29.627C30.5277 22.5557 31.0812 22.9599 31.274 23.3564C31.8578 24.5496 32.437 25.745 33.0114 26.9427C33.558 25.8009 34.1094 24.6615 34.6655 23.5243C34.8526 23.5916 35.0512 23.6345 35.2606 23.6345H37.326C37.4061 23.6345 37.4823 23.621 37.5592 23.6108L35.0454 28.7902ZM38.4324 21.8875C38.4324 22.4942 37.9333 22.9913 37.3247 22.9913H35.26C34.6514 22.9913 34.1524 22.4948 34.1524 21.8875L34.1536 16.0046C34.1528 15.8886 34.1754 15.7735 34.2202 15.6664C34.2649 15.5593 34.3309 15.4624 34.4141 15.3814C34.4972 15.3004 34.5959 15.2371 34.7042 15.1953C34.8125 15.1534 34.9281 15.1339 35.0441 15.1379C35.2832 15.1495 35.5087 15.2521 35.6745 15.4247C35.8404 15.5973 35.9338 15.8268 35.9359 16.0661L35.9352 17.0546H37.326C37.934 17.0546 38.4337 17.5511 38.4337 18.1584V21.8875H38.4324Z" fill="black"/>
<path d="M21.1672 12.5499C21.1672 11.776 20.549 11.1738 19.7841 11.1738C19.0192 11.1738 18.3984 11.776 18.3984 12.5499C18.3984 13.3238 19.0192 13.926 19.7841 13.926C20.549 13.926 21.1672 13.3238 21.1672 12.5499ZM26.551 13.926C27.3166 13.926 27.9373 13.3238 27.9373 12.5499C27.9373 11.776 27.3166 11.1738 26.551 11.1738C25.7855 11.1738 25.1673 11.776 25.1673 12.5499C25.1673 13.3238 25.7855 13.926 26.551 13.926ZM25.7304 17.1214C25.7304 17.1214 25.7304 16.8773 25.4741 16.8773H20.8616C20.606 16.8773 20.606 17.1214 20.606 17.1214C20.606 18.0977 21.8873 18.5859 23.1679 18.5859C24.4491 18.5852 25.7304 18.0977 25.7304 17.1214Z" fill="black"/>
</svg>
