<svg width="30" height="30" viewBox="0 0 40 40" fill="none" xmlns="http://www.w3.org/2000/svg">
<path d="M20.0004 12C21.0613 12 22.0787 11.5786 22.8288 10.8284C23.579 10.0783 24.0004 9.06087 24.0004 8C24.0004 6.93913 23.579 5.92172 22.8288 5.17157C22.0787 4.42143 21.0613 4 20.0004 4C18.9395 4 17.9221 4.42143 17.172 5.17157C16.4218 5.92172 16.0004 6.93913 16.0004 8C16.0004 9.06087 16.4218 10.0783 17.172 10.8284C17.9221 11.5786 18.9395 12 20.0004 12ZM20.0004 10C19.47 10 18.9613 9.78929 18.5862 9.41421C18.2111 9.03914 18.0004 8.53043 18.0004 8C18.0004 7.46957 18.2111 6.96086 18.5862 6.58579C18.9613 6.21071 19.47 6 20.0004 6C20.5308 6 21.0395 6.21071 21.4146 6.58579C21.7897 6.96086 22.0004 7.46957 22.0004 8C22.0004 8.53043 21.7897 9.03914 21.4146 9.41421C21.0395 9.78929 20.5308 10 20.0004 10ZM17.0004 16C16.7352 16 16.4808 16.1054 16.2933 16.2929C16.1058 16.4804 16.0004 16.7348 16.0004 17V18H14.0004V17C14.0004 16.2044 14.3165 15.4413 14.8791 14.8787C15.4417 14.3161 16.2048 14 17.0004 14H23.0004C23.7961 14 24.5591 14.3161 25.1217 14.8787C25.6843 15.4413 26.0004 16.2044 26.0004 17V18H24.0004V17C24.0004 16.7348 23.895 16.4804 23.7075 16.2929C23.52 16.1054 23.2656 16 23.0004 16H17.0004ZM14.0004 29.568V33C14.0004 33.7956 14.3165 34.5587 14.8791 35.1213C15.4417 35.6839 16.2048 36 17.0004 36H23.0004C23.7961 36 24.5591 35.6839 25.1217 35.1213C25.6843 34.5587 26.0004 33.7956 26.0004 33V29.568C26.0004 29.4336 26.0275 29.3005 26.0801 29.1768C26.1326 29.0531 26.2096 28.9413 26.3064 28.848L33.7124 21.72C33.8559 21.5817 33.9548 21.4036 33.9964 21.2086C34.038 21.0136 34.0204 20.8107 33.9458 20.6258C33.8712 20.441 33.743 20.2826 33.5778 20.1711C33.4126 20.0596 33.2178 20 33.0184 20H6.9824C6.78322 20.0004 6.5887 20.0603 6.42376 20.1719C6.25882 20.2836 6.13099 20.442 6.05664 20.6267C5.9823 20.8115 5.96483 21.0143 6.00648 21.2091C6.04813 21.4039 6.14699 21.5818 6.2904 21.72L13.6944 28.848C13.7915 28.9411 13.8689 29.0529 13.9218 29.1766C13.9747 29.3003 14.0001 29.4334 14.0004 29.568ZM16.0004 33V29.568C16.0002 29.1646 15.9186 28.7654 15.7605 28.3943C15.6024 28.0231 15.3711 27.6877 15.0804 27.408L9.4604 22H30.5364L24.9204 27.406C24.6295 27.6859 24.398 28.0217 24.2399 28.3932C24.0819 28.7647 24.0004 29.1643 24.0004 29.568V33C24.0004 33.2652 23.895 33.5196 23.7075 33.7071C23.52 33.8946 23.2656 34 23.0004 34H17.0004C16.7352 34 16.4808 33.8946 16.2933 33.7071C16.1058 33.5196 16.0004 33.2652 16.0004 33Z" fill="black"/>
</svg>
