<svg width="30" height="30" viewBox="0 0 37 37" fill="none" xmlns="http://www.w3.org/2000/svg">
<path d="M6.16927 30.8327C5.32136 30.8327 4.59523 30.5305 3.9909 29.9262C3.38656 29.3219 3.08491 28.5962 3.08594 27.7494V9.24935C3.08594 8.40143 3.38811 7.67531 3.99244 7.07098C4.59677 6.46664 5.32238 6.16499 6.16927 6.16602H15.4193L18.5026 9.24935H30.8359C31.6839 9.24935 32.41 9.55152 33.0143 10.1559C33.6187 10.7602 33.9203 11.4858 33.9193 12.3327V17.4202C33.4311 17.2146 32.9234 17.0795 32.3961 17.0147C31.8689 16.95 31.3488 16.9567 30.8359 17.0348V12.3327H17.2307L14.1474 9.24935H6.16927V27.7494H18.6568L18.5026 27.9035V30.8327H6.16927ZM21.5859 33.916V29.1754L30.1036 20.6962C30.3349 20.465 30.5918 20.298 30.8745 20.1952C31.1571 20.0924 31.4398 20.041 31.7224 20.041C32.0307 20.041 32.3262 20.0991 32.6089 20.2152C32.8915 20.3314 33.1484 20.5045 33.3797 20.7348L34.8057 22.1608C35.0113 22.3921 35.1721 22.649 35.2883 22.9316C35.4044 23.2143 35.462 23.4969 35.4609 23.7796C35.4609 24.0622 35.4096 24.3515 35.3068 24.6475C35.204 24.9435 35.037 25.2066 34.8057 25.4369L26.3266 33.916H21.5859ZM23.8984 31.6035H25.363L30.0266 26.9014L29.3328 26.1691L28.6005 25.4754L23.8984 30.1389V31.6035ZM29.3328 26.1691L28.6005 25.4754L30.0266 26.9014L29.3328 26.1691Z" fill="black"/>
</svg>
