<svg width="12" height="12" viewBox="0 0 12 12" fill="none" xmlns="http://www.w3.org/2000/svg">
    <path d="M7 1.6343C7 1.28398 6.716 1 6.3657 1H5.6343C5.284 1 5 1.28398 5 1.6343C5 1.92372 4.80182 2.17151 4.5326 2.27773C4.48999 2.29454 4.44773 2.31207 4.40586 2.33028C4.14035 2.44578 3.82488 2.41072 3.62014 2.20599C3.37237 1.95822 2.97066 1.95822 2.72289 2.20599L2.20594 2.72294C1.95816 2.97071 1.95816 3.37243 2.20594 3.62021C2.41068 3.82495 2.44574 4.14043 2.33025 4.40594C2.31204 4.44779 2.29453 4.49002 2.27773 4.5326C2.17151 4.80182 1.92372 5 1.6343 5C1.28398 5 1 5.284 1 5.6343V6.3657C1 6.716 1.28398 7 1.6343 7C1.92372 7 2.17151 7.19815 2.27773 7.4674C2.29453 7.51 2.31204 7.5522 2.33025 7.59405C2.44574 7.85955 2.41068 8.17505 2.20594 8.3798C1.95816 8.62755 1.95816 9.0293 2.20594 9.27705L2.72289 9.794C2.97066 10.0418 3.37237 10.0418 3.62014 9.794C3.82488 9.5893 4.14036 9.5542 4.40587 9.6697C4.44774 9.68795 4.48999 9.70545 4.5326 9.72225C4.80182 9.8285 5 10.0763 5 10.3657C5 10.716 5.284 11 5.6343 11H6.3657C6.716 11 7 10.716 7 10.3657C7 10.0763 7.19815 9.8285 7.4674 9.72225C7.51 9.70545 7.55225 9.68795 7.5941 9.66975C7.8596 9.55425 8.17505 9.5893 8.37975 9.79405C8.6275 10.0418 9.0292 10.0418 9.27695 9.79405L9.794 9.277C10.0417 9.02925 10.0417 8.6276 9.794 8.37985C9.58925 8.1751 9.5542 7.85965 9.6697 7.59415C9.68795 7.5523 9.70545 7.51 9.72225 7.4674C9.8285 7.1982 10.0763 7 10.3657 7C10.716 7 11 6.716 11 6.3657V5.6343C11 5.284 10.716 5 10.3657 5C10.0763 5 9.8285 4.80182 9.72225 4.5326C9.70545 4.48998 9.68795 4.44772 9.6697 4.40583C9.5542 4.14034 9.58925 3.82489 9.794 3.62017C10.0417 3.37242 10.0417 2.97074 9.794 2.72299L9.27695 2.20597C9.0292 1.95821 8.6275 1.95821 8.37975 2.20597C8.17505 2.41069 7.8596 2.44575 7.5941 2.33026C7.55225 2.31205 7.51 2.29453 7.4674 2.27773C7.19815 2.17151 7 1.92372 7 1.6343Z" stroke="#B0B0B0"/>
    <path d="M8 6C8 7.10455 7.10455 8 6 8C4.89543 8 4 7.10455 4 6C4 4.89543 4.89543 4 6 4C7.10455 4 8 4.89543 8 6Z" stroke="#B0B0B0"/>
</svg>
