<svg width="20" height="20" viewBox="0 0 17 17" fill="none" xmlns="http://www.w3.org/2000/svg">
    <circle cx="8.5" cy="8.5" r="8.5" fill="#A4161A"/>
    <path d="M8.4472 4.04102C7.31875 4.04102 6.39547 5.18998 6.39547 6.60567C6.39547 8.02136 7.31875 9.17033 8.4472 9.17033C9.57565 9.17033 10.4989 8.02136 10.4989 6.60567C10.4989 5.18998 9.57565 4.04102 8.4472 4.04102ZM6.30315 9.17033C5.21573 9.22162 4.34375 10.1141 4.34375 11.2221V12.2479H12.5506V11.2221C12.5506 10.1141 11.6889 9.22162 10.5913 9.17033C10.0373 9.7961 9.27815 10.1962 8.4472 10.1962C7.61625 10.1962 6.85711 9.7961 6.30315 9.17033Z" fill="#E9E9E9"/>
</svg>
