<svg width="24" height="25" viewBox="0 0 24 25" fill="none" xmlns="http://www.w3.org/2000/svg">
    <path d="M15 8.51172C15 9.43998 14.6313 10.3302 13.9749 10.9866C13.3185 11.643 12.4283 12.0117 11.5 12.0117C10.5717 12.0117 9.6815 11.643 9.02513 10.9866C8.36875 10.3302 8 9.43998 8 8.51172C8 7.58346 8.36875 6.69322 9.02513 6.03685C9.6815 5.38047 10.5717 5.01172 11.5 5.01172C12.4283 5.01172 13.3185 5.38047 13.9749 6.03685C14.6313 6.69322 15 7.58346 15 8.51172Z" fill="black"/>
    <path d="M17.631 20.0117H5.94801C5.54601 20.0117 5.31901 19.5707 5.57001 19.2567C6.68501 17.8597 9.29101 15.0117 12.001 15.0117C14.728 15.0117 17.064 17.8977 18.028 19.2847C18.248 19.6017 18.018 20.0117 17.632 20.0117H17.631Z" fill="black" stroke="black" stroke-width="2" stroke-linecap="round" stroke-linejoin="round"/>
</svg>
