<svg xmlns="http://www.w3.org/2000/svg" width="29" height="32" viewBox="0 0 29 32" fill="none">
  <path d="M8.24885 4V5H4.77344V27H23.8882V5H20.4128V4H18.6751V5H9.98655V4H8.24885ZM6.51114 7H8.24885V8H9.98655V7H18.6751V8H20.4128V7H22.1505V9H6.51114V7ZM6.51114 11H22.1505V25H6.51114V11ZM11.7243 13V15H13.462V13H11.7243ZM15.1997 13V15H16.9374V13H15.1997ZM18.6751 13V15H20.4128V13H18.6751ZM8.24885 17V19H9.98655V17H8.24885ZM11.7243 17V19H13.462V17H11.7243ZM15.1997 17V19H16.9374V17H15.1997ZM18.6751 17V19H20.4128V17H18.6751ZM8.24885 21V23H9.98655V21H8.24885ZM11.7243 21V23H13.462V21H11.7243ZM15.1997 21V23H16.9374V21H15.1997Z" fill="black"/>
</svg>